<?xml version="1.0" encoding="utf-8"?>
<!-- Generator: Adobe Illustrator 25.2.0, SVG Export Plug-In . SVG Version: 6.00 Build 0)  -->
<svg version="1.1" id="Ebene_1" xmlns="http://www.w3.org/2000/svg" xmlns:xlink="http://www.w3.org/1999/xlink" x="0px" y="0px"
	 viewBox="0 0 70 70" style="enable-background:new 0 0 70 70;" xml:space="preserve">
<style type="text/css">
	.st0{fill:#FFFFFF;}
</style>
<g id="Gruppe_459" transform="translate(-2496.356 -1189.317)">
	<path id="Pfad_33" class="st0" d="M2531.3,1244.3c-5.3,0-10.6,0-15.9,0c-1.9,0-3.5-1.3-3.9-3.1c-0.1-0.3-0.1-0.7-0.1-1
		c0-10.6,0-21.2,0-31.8c0-2.2,1.7-4,4-4.1c0,0,0.1,0,0.1,0c10.6,0,21.2,0,31.9,0c2.2,0,4,1.7,4.1,4c0,0,0,0.1,0,0.1
		c0,10.6,0,21.2,0,31.9c0,2.2-1.8,4-4,4c0,0-0.1,0-0.1,0C2542,1244.3,2536.6,1244.3,2531.3,1244.3z M2533.4,1226.3v14h6v-0.5
		c0-4.4,0-8.7,0-13.1c0-0.3,0.1-0.4,0.4-0.4c1.7,0,3.4,0,5.1,0h0.4v-6h-5.9c0-0.1,0-0.1,0-0.2c0-1.3,0-2.5,0-3.8
		c0-0.3,0.1-0.6,0.2-0.9c0.3-0.7,1.1-1.2,1.9-1.1c1.2,0,2.3,0,3.5,0h0.4v-6h-0.3c-1.5,0-3,0-4.4,0c-3.8-0.1-6.9,2.9-7.2,6.7
		c-0.1,1.6,0,3.3,0,4.9c0,0.1,0,0.3,0,0.4h-4c0,0.1,0,0.1,0,0.2c0,1.9,0,3.7,0,5.6c0,0.2,0.1,0.3,0.3,0.3c1,0,2,0,3,0L2533.4,1226.3
		z"/>
</g>
</svg>
