<svg id="Ebene_1" data-name="Ebene 1" xmlns="http://www.w3.org/2000/svg" viewBox="0 0 40 39.99"><defs><style>.cls-1{fill:#fff;}</style></defs><g id="Gruppe_457" data-name="Gruppe 457"><path id="Pfad_31" data-name="Pfad 31" class="cls-1" d="M15,51.39V18.65c0-.06,0-.13,0-.19A4,4,0,0,1,19,15H51a4.06,4.06,0,0,1,4,4c0,10.66,0,21.32,0,32a3.76,3.76,0,0,1-2,3.47,7.4,7.4,0,0,1-1.36.5H18.42l-.14,0a4,4,0,0,1-3.06-2.66A8.45,8.45,0,0,1,15,51.39Zm22-18V31H31V49h6V47c0-2.87,0-5.73,0-8.6a3,3,0,1,1,6,.07h0V49h6c0-.07,0-.12,0-.18,0-3.68,0-7.36,0-11a6.83,6.83,0,0,0-1.26-4.09,6.72,6.72,0,0,0-5.54-3,6.12,6.12,0,0,0-5,2.55ZM27,31H21V49h6Zm.62-7A3.6,3.6,0,1,0,24,27.61h0A3.58,3.58,0,0,0,27.6,24h0Z" transform="translate(-15 -15.01)"/></g></svg>