<?xml version="1.0" encoding="utf-8"?>
<!-- Generator: Adobe Illustrator 25.2.0, SVG Export Plug-In . SVG Version: 6.00 Build 0)  -->
<svg version="1.1" id="Ebene_1" xmlns="http://www.w3.org/2000/svg" xmlns:xlink="http://www.w3.org/1999/xlink" x="0px" y="0px"
	 viewBox="0 0 70 70" style="enable-background:new 0 0 70 70;" xml:space="preserve">
<style type="text/css">
	.st0{fill:#FFFFFF;}
</style>
<g id="Gruppe_460" transform="translate(74 140.055)">
	<path id="Pfad_4766" class="st0" d="M-53-93.7v-22.6c0,0,0-0.1,0-0.1c0.2-1.4,1.4-2.4,2.8-2.4h22.3c1.5,0,2.8,1.2,2.8,2.8
		c0,7.4,0,14.7,0,22.1c0,1-0.5,1.9-1.4,2.4c-0.3,0.1-0.6,0.3-1,0.3h-23.2c0,0-0.1,0-0.1,0c-1-0.2-1.8-0.9-2.1-1.8
		C-52.9-93.3-53-93.5-53-93.7z M-37.6-106.2v-1.6h-4.2v12.4h4.2v-1.4c0-2,0-4,0-5.9c0-1.2,1-2.1,2.1-2.1c1.2,0,2.1,1,2.1,2.1
		c0,2.3,0,4.7,0,7v0.3h4.2c0,0,0-0.1,0-0.1c0-2.5,0-5.1,0-7.6c0-1-0.3-2-0.9-2.8c-0.9-1.3-2.3-2.1-3.9-2.1c-1.4,0-2.7,0.6-3.5,1.8
		L-37.6-106.2z M-44.6-107.8h-4.2v12.4h4.2V-107.8z M-44.2-112.6c0-1.4-1.1-2.5-2.5-2.6c-1.4,0-2.5,1.1-2.6,2.5
		c0,1.4,1.1,2.5,2.5,2.6c0,0,0,0,0,0C-45.3-110.1-44.2-111.3-44.2-112.6C-44.2-112.6-44.2-112.6-44.2-112.6L-44.2-112.6z"/>
</g>
</svg>
