<?xml version="1.0" encoding="utf-8"?>
<!-- Generator: Adobe Illustrator 25.2.0, SVG Export Plug-In . SVG Version: 6.00 Build 0)  -->
<svg version="1.1" id="Ebene_1" xmlns="http://www.w3.org/2000/svg" xmlns:xlink="http://www.w3.org/1999/xlink" x="0px" y="0px"
	 viewBox="0 0 70 70" style="enable-background:new 0 0 70 70;" xml:space="preserve">
<style type="text/css">
	.st0{fill:#FFFFFF;}
</style>
<g id="Gruppe_462" transform="translate(0 140.055)">
	<path id="Pfad_4769" class="st0" d="M35-91.3c-3.7,0-7.3,0-11,0c-1.3,0-2.4-0.9-2.7-2.1c-0.1-0.2-0.1-0.5-0.1-0.7
		c0-7.3,0-14.7,0-22c0-1.5,1.2-2.8,2.7-2.8c0,0,0.1,0,0.1,0c7.3,0,14.7,0,22,0c1.5,0,2.8,1.2,2.8,2.7c0,0,0,0,0,0.1
		c0,7.3,0,14.7,0,22c0,1.5-1.2,2.8-2.8,2.8c0,0,0,0-0.1,0C42.3-91.2,38.6-91.2,35-91.3z M36.4-103.7v9.6h4.1v-0.3c0-3,0-6,0-9.1
		c0-0.2,0.1-0.3,0.3-0.3c1.2,0,2.4,0,3.6,0h0.3v-4.2h-4.1c0,0,0-0.1,0-0.1c0-0.9,0-1.8,0-2.6c0-0.2,0-0.4,0.1-0.6
		c0.2-0.5,0.7-0.8,1.3-0.8c0.8,0,1.6,0,2.4,0h0.3v-4.1h-0.2c-1,0-2,0-3.1,0c-2.6,0-4.8,2-4.9,4.6c-0.1,1.1,0,2.3,0,3.4
		c0,0.1,0,0.2,0,0.3h-2.7c0,0,0,0.1,0,0.1c0,1.3,0,2.6,0,3.8c0,0.2,0.1,0.2,0.2,0.2c0.7,0,1.4,0,2.1,0L36.4-103.7z"/>
</g>
</svg>
