<?xml version="1.0" encoding="utf-8"?>
<!-- Generator: Adobe Illustrator 25.2.0, SVG Export Plug-In . SVG Version: 6.00 Build 0)  -->
<svg version="1.1" id="Ebene_1" xmlns="http://www.w3.org/2000/svg" xmlns:xlink="http://www.w3.org/1999/xlink" x="0px" y="0px"
	 viewBox="0 0 70 70" style="enable-background:new 0 0 70 70;" xml:space="preserve">
<style type="text/css">
	.st0{fill:#FFFFFF;}
	.st1{fill:#C28C02;}
</style>
<g id="Gruppe_294" transform="translate(-934 -455)">
	<rect id="Rechteck_99" x="959.3" y="479.4" class="st0" width="20" height="20"/>
	<path id="Pfad_49" class="st1" d="M975,483.7c-0.4-0.4-0.9-0.4-1.3,0c0,0,0,0,0,0l-4.5,4.4l-4.5-4.5c-0.4-0.4-0.9-0.4-1.3,0
		c-0.4,0.4-0.4,0.9,0,1.3l4.5,4.5l-4.5,4.5c-0.4,0.4-0.4,0.9,0,1.3c0.4,0.4,0.9,0.4,1.3,0l4.5-4.5l4.5,4.5c0.4,0.4,0.9,0.4,1.3,0
		s0.4-0.9,0-1.3l-4.5-4.5l4.5-4.5C975.4,484.6,975.4,484,975,483.7z"/>
</g>
</svg>
