<?xml version="1.0" encoding="utf-8"?>
<!-- Generator: Adobe Illustrator 25.2.0, SVG Export Plug-In . SVG Version: 6.00 Build 0)  -->
<svg version="1.1" id="Ebene_1" xmlns="http://www.w3.org/2000/svg" xmlns:xlink="http://www.w3.org/1999/xlink" x="0px" y="0px"
	 viewBox="0 0 70 70" style="enable-background:new 0 0 70 70;" xml:space="preserve">
<style type="text/css">
	.st0{fill:#FFFFFF;}
</style>
<path id="Pfad_32" class="st0" d="M20,42.3V27.7c0-0.1,0-0.2,0.1-0.3c0.1-0.8,0.4-1.6,0.6-2.3c1.3-3.1,4.3-5.1,7.6-5
	c4.5-0.1,8.9,0,13.4,0c1.7,0,3.3,0.5,4.7,1.5c2.3,1.6,3.7,4.2,3.6,7c0,4.4,0,8.7,0,13.1c0,0.6,0,1.1-0.2,1.7c-0.6,3.2-3,5.8-6.2,6.5
	c-0.4,0.1-0.9,0.2-1.3,0.2H27.7c-0.3,0-0.6-0.1-0.9-0.1c-3.2-0.6-5.8-3-6.5-6.2C20.1,43.2,20.1,42.8,20,42.3z M22.7,35
	c0,2.2,0,4.3,0,6.5c0,0.7,0.1,1.4,0.3,2c0.8,2.3,3,3.9,5.5,3.8c4.4,0,8.7,0,13.1,0c0.7,0,1.3-0.1,2-0.3c2.4-0.8,3.9-3,3.8-5.5
	c0-4.4,0-8.7,0-13.1c0-0.7-0.1-1.3-0.3-2c-0.8-2.3-3-3.9-5.4-3.8c-4.4,0-8.8,0-13.1,0c-1.9-0.1-3.6,0.8-4.7,2.4
	c-0.7,1-1.1,2.2-1,3.4C22.7,30.7,22.7,32.8,22.7,35L22.7,35z M42.7,35c0,4.3-3.5,7.7-7.7,7.7c-4.3,0-7.7-3.5-7.7-7.7
	c0-4.3,3.5-7.7,7.7-7.7C39.3,27.3,42.7,30.7,42.7,35L42.7,35z M35,29.9c-2.8,0-5.1,2.3-5.1,5.1s2.3,5.1,5.1,5.1
	c2.8,0,5.1-2.3,5.1-5.1C40.1,32.2,37.8,30,35,29.9L35,29.9z M41.1,27c0,1.1,0.9,2,1.9,2c1.1,0,2-0.9,2-1.9c0-1.1-0.9-2-1.9-2
	c0,0,0,0,0,0C42,25,41.1,25.9,41.1,27L41.1,27z"/>
</svg>
