<?xml version="1.0" encoding="utf-8"?>
<!-- Generator: Adobe Illustrator 25.2.0, SVG Export Plug-In . SVG Version: 6.00 Build 0)  -->
<svg version="1.1" id="Ebene_1" xmlns="http://www.w3.org/2000/svg" xmlns:xlink="http://www.w3.org/1999/xlink" x="0px" y="0px"
	 viewBox="0 0 70 70" style="enable-background:new 0 0 70 70;" xml:space="preserve">
<style type="text/css">
	.st0{fill:#ECBD46;}
</style>
<path id="Pfad_36" class="st0" d="M50.9,45h-9.4c-4.8,0-9.6,0-14.3,0c-2.2,0.2-4.1-1.5-4.2-3.7c-0.1-0.9,0.2-1.7,0.6-2.4
	c0.7-1.3,1.5-2.7,2.2-4c0.2-0.4,0.2-0.9,0.1-1.3c-2.1-4.6-4.3-9.1-6.5-13.7c-0.2-0.6-0.8-1-1.4-0.9c-1,0.1-1.9,0-2.9,0V15
	c2.1,0,4.1,0,6.1,0c0.2,0,0.5,0.3,0.6,0.6c0.5,0.8,0.9,1.6,1.2,2.5c0.3,0.8,0.8,0.9,1.5,0.9c9.1,0,18.2,0,27.4,0c0.3,0,0.6,0,0.9,0
	c2,0,2.9,1.5,1.9,3.2c-2,3.7-4.1,7.4-6.1,11.1c-0.2,0.4-0.4,0.7-0.6,1.1c-0.7,1.7-2.5,2.7-4.3,2.5c-4.4,0-8.8,0-13.3,0
	c-0.7-0.1-1.5,0.3-1.7,1c-0.3,0.6-0.7,1.2-1,1.9c-0.4,0.9-0.3,1.1,0.7,1.2c0.2,0,0.5,0,0.7,0h21.9L50.9,45z M47.1,55
	c2.2,0,3.9-1.8,3.9-4c0-2.2-1.8-4-4-4c0,0,0,0,0,0c-2.2,0-3.9,1.7-4,3.9c0,0,0,0.1,0,0.1c0,2.2,1.7,3.9,3.9,3.9C47,55,47,55,47.1,55
	L47.1,55z M26.9,47.1c-2.2,0-3.9,1.8-3.9,3.9c0,2.2,1.8,4,4,4c0,0,0,0,0,0c2.2,0,3.9-1.7,4-3.9c0,0,0-0.1,0-0.1c0-2.2-1.7-3.9-3.8-4
	C27,47.1,27,47.1,26.9,47.1L26.9,47.1z"/>
</svg>
