<svg id="Ebene_1" data-name="Ebene 1" xmlns="http://www.w3.org/2000/svg" viewBox="0 0 40 40.01"><defs><style>.cls-1{fill:#fff;}</style></defs><g id="Gruppe_458" data-name="Gruppe 458"><path id="Pfad_30" data-name="Pfad 30" class="cls-1" d="M15,35V20.25a5.11,5.11,0,0,1,4-5.12A6.11,6.11,0,0,1,20.29,15H49.71A5.14,5.14,0,0,1,55,20V49.71A5.14,5.14,0,0,1,50,55H20.29A5.14,5.14,0,0,1,15,50V35ZM43.22,46.84,43,46.37l-4.82-8.46a.62.62,0,0,1,0-.71Q42,30.42,45.88,23.63c.08-.14.15-.28.25-.47H40.82a.48.48,0,0,0-.33.24q-4,6.93-7.9,13.89a.58.58,0,0,0,0,.48q2.49,4.42,5,8.83a.51.51,0,0,0,.35.22ZM23.9,39.62l.14.05h4.79a.54.54,0,0,0,.37-.25c1.27-2.07,2.53-4.15,3.79-6.22a.46.46,0,0,0,0-.56c-.92-1.62-1.84-3.23-2.75-4.86a.52.52,0,0,0-.53-.29c-.83,0-1.66,0-2.5,0H24.89c.1.18.16.32.24.45.87,1.54,1.74,3.09,2.63,4.63a.56.56,0,0,1,0,.67c-1.22,2-2.42,4-3.63,6l-.23.4Z" transform="translate(-15 -15)"/></g></svg>