<?xml version="1.0" encoding="utf-8"?>
<!-- Generator: Adobe Illustrator 25.2.0, SVG Export Plug-In . SVG Version: 6.00 Build 0)  -->
<svg version="1.1" id="Ebene_1" xmlns="http://www.w3.org/2000/svg" xmlns:xlink="http://www.w3.org/1999/xlink" x="0px" y="0px"
	 viewBox="0 0 70 70" style="enable-background:new 0 0 70 70;" xml:space="preserve">
<style type="text/css">
	.st0{fill:#FFFFFF;}
</style>
<path id="Pfad_30" class="st0" d="M20,35c0-3.7,0-7.4,0-11.1c0-1.8,1.2-3.4,3-3.8c0.3-0.1,0.6-0.1,1-0.1c7.4,0,14.7,0,22.1,0
	c2.1-0.1,3.9,1.6,4,3.7c0,0.1,0,0.2,0,0.2c0,7.4,0,14.7,0,22.1c0.1,2.1-1.6,3.9-3.7,4c-0.1,0-0.2,0-0.2,0c-7.4,0-14.7,0-22.1,0
	c-2.1,0.1-3.9-1.6-4-3.7c0-0.1,0-0.2,0-0.2C20,42.4,20,38.7,20,35z M41.2,43.9c-0.1-0.2-0.1-0.3-0.2-0.3c-1.2-2.1-2.4-4.2-3.6-6.3
	c-0.1-0.2-0.1-0.4,0-0.5c1.9-3.4,3.9-6.8,5.8-10.2c0.1-0.1,0.1-0.2,0.2-0.4c-1.4,0-2.7,0-4,0c-0.1,0-0.2,0.1-0.2,0.2
	c-2,3.5-4,6.9-5.9,10.4c-0.1,0.1-0.1,0.2,0,0.4c1.2,2.2,2.5,4.4,3.8,6.6c0.1,0.1,0.2,0.1,0.3,0.2C38.5,43.9,39.8,43.9,41.2,43.9
	L41.2,43.9z M26.7,38.5c0,0,0.1,0,0.1,0c1.2,0,2.4,0,3.6,0c0.1,0,0.2-0.1,0.3-0.2c1-1.6,1.9-3.1,2.8-4.7c0.1-0.1,0.1-0.3,0-0.4
	c-0.7-1.2-1.4-2.4-2.1-3.6c-0.1-0.2-0.2-0.2-0.4-0.2c-0.6,0-1.2,0-1.9,0h-1.7c0.1,0.1,0.1,0.2,0.2,0.3c0.7,1.2,1.3,2.3,2,3.5
	c0.1,0.1,0.1,0.4,0,0.5c-0.9,1.5-1.8,3-2.7,4.5C26.8,38.3,26.7,38.4,26.7,38.5L26.7,38.5z"/>
</svg>
