<?xml version="1.0" encoding="utf-8"?>
<!-- Generator: Adobe Illustrator 25.2.0, SVG Export Plug-In . SVG Version: 6.00 Build 0)  -->
<svg version="1.1" id="Ebene_1" xmlns="http://www.w3.org/2000/svg" xmlns:xlink="http://www.w3.org/1999/xlink" x="0px" y="0px"
	 viewBox="0 0 70 70" style="enable-background:new 0 0 70 70;" xml:space="preserve">
<style type="text/css">
	.st0{fill:#FFFFFF;}
	.st1{fill:#C28C02;}
</style>
<g id="Gruppe_431" transform="translate(-934 -455)">
	<rect id="Rechteck_99" x="956.2" y="475.1" class="st0" width="30" height="30"/>
	<path id="Pfad_49" class="st1" d="M980.7,480.6c-0.6-0.6-1.5-0.6-2.1,0c0,0,0,0,0,0l-7.4,7.4l-7.4-7.4c-0.6-0.6-1.5-0.6-2.1,0
		c-0.6,0.6-0.6,1.5,0,2.1l7.4,7.4l-7.4,7.4c-0.6,0.6-0.6,1.5,0,2.1c0.6,0.6,1.5,0.6,2.1,0l0,0l7.4-7.4l7.4,7.4
		c0.6,0.6,1.5,0.6,2.1,0c0.6-0.6,0.6-1.5,0-2.1l0,0l-7.4-7.4l7.4-7.4C981.3,482.1,981.3,481.2,980.7,480.6z"/>
</g>
</svg>
