<?xml version="1.0" encoding="utf-8"?>
<!-- Generator: Adobe Illustrator 25.2.0, SVG Export Plug-In . SVG Version: 6.00 Build 0)  -->
<svg version="1.1" id="Ebene_1" xmlns="http://www.w3.org/2000/svg" xmlns:xlink="http://www.w3.org/1999/xlink" x="0px" y="0px"
	 viewBox="0 0 70 70" style="enable-background:new 0 0 70 70;" xml:space="preserve">
<style type="text/css">
	.st0{fill:#FFFFFF;}
</style>
<g id="Gruppe_213" transform="translate(80 -0.09)">
	<path id="Pfad_31" class="st0" d="M-60,47.4V22.8c0,0,0-0.1,0-0.1c0.2-1.5,1.5-2.6,3-2.6H-33c1.7,0,3,1.4,3,3c0,8,0,16,0,24
		c0,1.1-0.6,2.1-1.5,2.6c-0.3,0.2-0.7,0.3-1,0.4h-24.9c0,0-0.1,0-0.1,0c-1.1-0.2-1.9-1-2.3-2C-59.9,47.8-60,47.6-60,47.4z
		 M-43.5,33.9v-1.8H-48v13.5h4.5c0-0.5,0-1,0-1.5c0-2.2,0-4.3,0-6.4c0-1.2,1-2.2,2.3-2.2s2.2,1,2.2,2.3l0,0c0,2.5,0,5.1,0,7.6v0.3
		h4.5c0-0.1,0-0.1,0-0.1c0-2.8,0-5.5,0-8.3c0-1.1-0.3-2.2-0.9-3.1c-0.9-1.4-2.5-2.3-4.2-2.3c-1.5,0-2.9,0.7-3.8,1.9L-43.5,33.9z
		 M-51,32.1h-4.5v13.5h4.5V32.1z M-50.5,26.9c0-1.5-1.2-2.7-2.7-2.7c-1.5,0-2.7,1.2-2.7,2.7c0,1.5,1.2,2.7,2.7,2.7c0,0,0,0,0,0
		C-51.8,29.5-50.5,28.3-50.5,26.9C-50.5,26.9-50.5,26.9-50.5,26.9z"/>
</g>
</svg>
