<svg id="Ebene_1" data-name="Ebene 1" xmlns="http://www.w3.org/2000/svg" viewBox="0 0 15.99 28"><defs><style>.cls-1{fill:#c28c02;}</style></defs><path id="Pfad_51" data-name="Pfad 51" class="cls-1" d="M29.12,50.29a2.19,2.19,0,0,1-1.27-.75,1.94,1.94,0,0,1,0-2.4,4.4,4.4,0,0,1,.35-.39L38.43,36.54a2.43,2.43,0,0,1,.25-.2l0-.12a1,1,0,0,1-.28-.17L28.13,25.77a2,2,0,0,1-.6-2.13A2,2,0,0,1,30,22.4a2.07,2.07,0,0,1,.53.28,2.28,2.28,0,0,1,.33.29L42.74,34.8a2,2,0,0,1,.4,2.49,2.93,2.93,0,0,1-.45.54L31.14,49.36a3,3,0,0,1-1.47.93Z" transform="translate(-27.43 -22.3)"/></svg>