<?xml version="1.0" encoding="utf-8"?>
<!-- Generator: Adobe Illustrator 25.2.0, SVG Export Plug-In . SVG Version: 6.00 Build 0)  -->
<svg version="1.1" id="Ebene_1" xmlns="http://www.w3.org/2000/svg" xmlns:xlink="http://www.w3.org/1999/xlink" x="0px" y="0px"
	 viewBox="0 0 70 70" style="enable-background:new 0 0 70 70;" xml:space="preserve">
<style type="text/css">
	.st0{fill:#FFFFFF;}
</style>
<path id="Pfad_4773" class="st0" d="M21,41.7V28.3c0-0.1,0-0.2,0.1-0.3c0.1-0.7,0.3-1.4,0.6-2.1c1.2-2.9,4-4.7,7.1-4.6
	c4.2-0.1,8.3,0,12.5,0c4.3,0,7.7,3.4,7.8,7.7c0,0,0,0.1,0,0.1c0,4,0,8,0,12.1c0,0.5,0,1-0.1,1.6c-0.5,3-2.8,5.3-5.8,6
	c-0.4,0.1-0.8,0.2-1.3,0.2H28.2c-0.3,0-0.6-0.1-0.9-0.1c-3-0.5-5.4-2.7-6.1-5.7C21.1,42.6,21.1,42.2,21,41.7z M23.5,35c0,2,0,4,0,6
	c0,0.6,0.1,1.3,0.3,1.9c0.8,2.2,2.8,3.6,5.1,3.5c4.1,0,8.1,0,12.2,0c0.6,0,1.3-0.1,1.8-0.3c2.2-0.7,3.7-2.7,3.6-5c0-4,0-8,0-12
	c0-0.6-0.1-1.2-0.3-1.8c-0.7-2.2-2.8-3.6-5.1-3.5c-4.1,0-8.2,0-12.3,0c-1.7-0.1-3.4,0.8-4.4,2.2c-0.7,0.9-1,2-1,3.2
	C23.5,31,23.5,33,23.5,35L23.5,35z M42.2,35c0.1,4-3.1,7.3-7.1,7.3c-4,0.1-7.3-3.1-7.3-7.1c-0.1-4,3.1-7.3,7.1-7.3c0,0,0.1,0,0.1,0
	C38.9,27.9,42.2,31.1,42.2,35L42.2,35z M35,30.3c-2.6,0-4.6,2.1-4.6,4.7s2.1,4.6,4.7,4.6c2.5,0,4.6-2.1,4.6-4.6
	C39.7,32.4,37.6,30.3,35,30.3L35,30.3z M40.7,27.6c0,1,0.8,1.8,1.8,1.9c1,0,1.8-0.8,1.9-1.8c0-1-0.8-1.8-1.8-1.9c0,0,0,0,0,0
	C41.5,25.8,40.7,26.6,40.7,27.6L40.7,27.6z"/>
</svg>
