<svg id="Ebene_1" data-name="Ebene 1" xmlns="http://www.w3.org/2000/svg" viewBox="0 0 27.62 27.62"><defs><style>.cls-1{fill:#fff;}</style></defs><g id="Gruppe_461" data-name="Gruppe 461"><path id="Pfad_4767" data-name="Pfad 4767" class="cls-1" d="M21.19,35V24.81A3.52,3.52,0,0,1,24,21.29a3.77,3.77,0,0,1,.88-.1H45.15a3.55,3.55,0,0,1,3.66,3.44V45.16a3.55,3.55,0,0,1-3.43,3.65H24.85a3.55,3.55,0,0,1-3.66-3.43V35Zm19.48,8.17c-.07-.14-.11-.23-.16-.32L37.18,37a.4.4,0,0,1,0-.49q2.67-4.68,5.33-9.37l.18-.33H39a.33.33,0,0,0-.23.17l-5.46,9.59a.38.38,0,0,0,0,.33c1.14,2,2.3,4.07,3.46,6.1a.33.33,0,0,0,.23.15Zm-13.33-5a.17.17,0,0,0,.1,0h3.3a.39.39,0,0,0,.26-.17c.88-1.43,1.74-2.87,2.62-4.3a.33.33,0,0,0,0-.39L31.72,30a.34.34,0,0,0-.36-.2c-.58,0-1.15,0-1.73,0H28c.07.12.11.22.16.3.6,1.07,1.2,2.14,1.82,3.2a.41.41,0,0,1,0,.47c-.84,1.37-1.67,2.75-2.51,4.13l-.15.28Z" transform="translate(-21.19 -21.19)"/></g></svg>