<svg id="Ebene_1" data-name="Ebene 1" xmlns="http://www.w3.org/2000/svg" viewBox="0 0 40 40.01"><defs><style>.cls-1{fill:#fff;}</style></defs><path id="Pfad_4772" data-name="Pfad 4772" class="cls-1" d="M15,44.77V25.25c0-.14,0-.28.07-.42a18.58,18.58,0,0,1,.85-3.11A10.7,10.7,0,0,1,26.09,15C32,15,38,15,43.9,15a10.67,10.67,0,0,1,6.31,2A10.9,10.9,0,0,1,55,26.27Q55,35,55,43.76a10.59,10.59,0,0,1-.2,2.25,10.87,10.87,0,0,1-8.22,8.67c-.59.16-1.2.22-1.8.33H25.24c-.41-.07-.83-.11-1.23-.2a10.9,10.9,0,0,1-8.68-8.24C15.17,46,15.11,45.37,15,44.77ZM18.55,35v8.67a7.71,7.71,0,0,0,.4,2.69,7.49,7.49,0,0,0,7.33,5.09c5.8,0,11.61,0,17.41,0a8.41,8.41,0,0,0,2.64-.4,7.39,7.39,0,0,0,5.11-7.3c0-5.81,0-11.63,0-17.45a8.5,8.5,0,0,0-.4-2.6,7.37,7.37,0,0,0-7.26-5.11q-8.77,0-17.53,0a7.54,7.54,0,0,0-7.7,7.74q0,4.34,0,8.69ZM45.3,35A10.31,10.31,0,1,1,35,24.71,10.3,10.3,0,0,1,45.3,35ZM35,28.26A6.75,6.75,0,1,0,41.75,35,6.75,6.75,0,0,0,35,28.26Zm8.12-4a2.6,2.6,0,1,0,2.63-2.57h0a2.62,2.62,0,0,0-2.6,2.57Z" transform="translate(-15 -14.99)"/></svg>