<?xml version="1.0" encoding="utf-8"?>
<!-- Generator: Adobe Illustrator 25.2.0, SVG Export Plug-In . SVG Version: 6.00 Build 0)  -->
<svg version="1.1" id="Ebene_1" xmlns="http://www.w3.org/2000/svg" xmlns:xlink="http://www.w3.org/1999/xlink" x="0px" y="0px"
	 viewBox="0 0 70 70" style="enable-background:new 0 0 70 70;" xml:space="preserve">
<style type="text/css">
	.st0{fill:#FFFFFF;}
</style>
<g id="Gruppe_214" transform="translate(0 -0.09)">
	<path id="Pfad_33" class="st0" d="M35,50.1c-4,0-8,0-11.9,0c-1.4,0-2.6-0.9-3-2.3C20,47.5,20,47.3,20,47c0-8,0-15.9,0-23.9
		c0-1.7,1.3-3,3-3.1c0,0,0.1,0,0.1,0c8,0,15.9,0,23.9,0c1.7,0,3,1.3,3,3c0,0,0,0,0,0.1c0,8,0,15.9,0,23.9c0,1.7-1.3,3-3,3
		c0,0,0,0-0.1,0C43,50.1,39,50.1,35,50.1z M36.5,36.6v10.5H41v-0.3c0-3.3,0-6.6,0-9.8c0-0.3,0.1-0.3,0.3-0.3c1.3,0,2.6,0,3.9,0h0.3
		v-4.5H41c0,0,0-0.1,0-0.1c0-1,0-1.9,0-2.9c0-0.2,0.1-0.5,0.1-0.7c0.2-0.6,0.8-0.9,1.4-0.8c0.9,0,1.8,0,2.6,0h0.3v-4.5h-0.3
		c-1.1,0-2.2,0-3.3,0c-2.8,0-5.2,2.2-5.4,5c-0.1,1.2,0,2.5,0,3.7c0,0.1,0,0.2,0,0.3h-3c0,0,0,0.1,0,0.1c0,1.4,0,2.8,0,4.2
		c0,0.2,0.1,0.2,0.2,0.2c0.7,0,1.5,0,2.2,0L36.5,36.6z"/>
</g>
</svg>
