<?xml version="1.0" encoding="utf-8"?>
<!-- Generator: Adobe Illustrator 25.2.0, SVG Export Plug-In . SVG Version: 6.00 Build 0)  -->
<svg version="1.1" id="Ebene_1" xmlns="http://www.w3.org/2000/svg" xmlns:xlink="http://www.w3.org/1999/xlink" x="0px" y="0px"
	 viewBox="0 0 70 70" style="enable-background:new 0 0 70 70;" xml:space="preserve">
<style type="text/css">
	.st0{fill:#ECBD46;}
</style>
<path id="Pfad_36" class="st0" d="M47.7,43h-7.5c-3.8,0-7.6,0-11.5,0c-1.7,0.1-3.3-1.2-3.4-2.9c-0.1-0.7,0.1-1.4,0.5-2
	c0.6-1.1,1.2-2.1,1.7-3.2c0.2-0.3,0.2-0.7,0.1-1.1c-1.7-3.7-3.5-7.3-5.2-11c-0.2-0.5-0.6-0.8-1.2-0.7c-0.8,0-1.5,0-2.3,0V19
	c1.6,0,3.3,0,4.9,0c0.2,0,0.4,0.3,0.5,0.4c0.4,0.6,0.7,1.3,1,2c0.2,0.6,0.6,0.8,1.2,0.8c7.3,0,14.6,0,21.9,0c0.2,0,0.5,0,0.7,0
	c1.6,0,2.3,1.2,1.5,2.6c-1.6,3-3.3,5.9-4.9,8.9c-0.2,0.3-0.3,0.6-0.5,0.9c-0.6,1.3-2,2.2-3.5,2c-3.5,0-7.1,0-10.6,0
	c-0.6-0.1-1.2,0.3-1.4,0.8c-0.2,0.5-0.5,1-0.8,1.5c-0.4,0.7-0.2,0.9,0.6,0.9c0.2,0,0.4,0,0.6,0h17.5L47.7,43z M44.7,51
	c1.7,0,3.1-1.4,3.1-3.2c0-1.8-1.4-3.2-3.2-3.2c0,0,0,0,0,0c-1.7,0-3.1,1.4-3.2,3.1c0,0,0,0.1,0,0.1C41.4,49.6,42.8,51,44.7,51
	C44.6,51,44.6,51,44.7,51L44.7,51z M28.5,44.6c-1.7,0-3.1,1.4-3.2,3.1c0,1.8,1.4,3.2,3.2,3.2c0,0,0,0,0,0c1.7,0,3.2-1.4,3.2-3.1
	c0,0,0-0.1,0-0.1c0-1.7-1.3-3.1-3.1-3.2C28.6,44.6,28.6,44.6,28.5,44.6L28.5,44.6z"/>
</svg>
